<svg width="64" height="64" viewBox="0 0 64 64" xmlns="http://www.w3.org/2000/svg">
  <defs>
    <linearGradient id="g" x1="0" y1="0" x2="1" y2="1">
      <stop offset="0" stop-color="#FFB43D"/>
      <stop offset="1" stop-color="#F97316"/>
    </linearGradient>
  </defs>
  <rect width="64" height="64" rx="16" fill="#0b0d11"/>
  <rect x="8" y="8" width="48" height="48" rx="12" fill="url(#g)" opacity="0.15"/>
  <path d="M32 16c-3 6-3 10 0 22 3-12 3-16 0-22z" fill="url(#g)"/>
  <path d="M31 22c-4-5-7-7-11-9 3 3 6 7 10 13z" fill="url(#g)"/>
  <path d="M33 22c4-5 7-7 11-9-3 3-6 7-10 13z" fill="url(#g)"/>
  <path d="M26 30 Q32 27 38 30 L35 46 Q32 50 29 46 Z" fill="#fff"/>
  <circle cx="45" cy="45" r="7" fill="#22a356" stroke="#0b0d11" stroke-width="2"/>
  <path d="M42 45 l2 2 4-4" fill="none" stroke="#fff" stroke-width="2" stroke-linecap="round" stroke-linejoin="round"/>
</svg>
